<?xml version="1.0" encoding="UTF-8"?>
<svg xmlns="http://www.w3.org/2000/svg" xmlns:xlink="http://www.w3.org/1999/xlink" width="854" height="480" viewBox="0 0 854 480">
<defs>
<g>
<g id="glyph-0-0">
<path d="M 8.890625 0 L 8.890625 -6.125 C 8.890625 -6.789062 8.910156 -7.4375 8.953125 -8.0625 C 8.734375 -7.289062 8.539062 -6.6875 8.375 -6.25 L 6 0 L 5.140625 0 L 2.734375 -6.25 L 2.375 -7.359375 L 2.15625 -8.0625 L 2.171875 -7.34375 L 2.203125 -6.125 L 2.203125 0 L 1.09375 0 L 1.09375 -9.171875 L 2.734375 -9.171875 L 5.171875 -2.8125 C 5.253906 -2.550781 5.332031 -2.273438 5.40625 -1.984375 C 5.488281 -1.691406 5.546875 -1.484375 5.578125 -1.359375 C 5.609375 -1.523438 5.679688 -1.785156 5.796875 -2.140625 C 5.910156 -2.492188 5.984375 -2.71875 6.015625 -2.8125 L 8.421875 -9.171875 L 10.015625 -9.171875 L 10.015625 0 Z "/>
</g>
<g id="glyph-0-1">
<path d="M 2.6875 0.125 C 1.988281 0.125 1.457031 -0.0546875 1.09375 -0.421875 C 0.738281 -0.796875 0.5625 -1.3125 0.5625 -1.96875 C 0.5625 -2.695312 0.800781 -3.253906 1.28125 -3.640625 C 1.757812 -4.035156 2.535156 -4.242188 3.609375 -4.265625 L 5.1875 -4.296875 L 5.1875 -4.671875 C 5.1875 -5.242188 5.0625 -5.65625 4.8125 -5.90625 C 4.570312 -6.15625 4.191406 -6.28125 3.671875 -6.28125 C 3.148438 -6.28125 2.769531 -6.191406 2.53125 -6.015625 C 2.289062 -5.835938 2.148438 -5.550781 2.109375 -5.15625 L 0.875 -5.265625 C 1.070312 -6.535156 2.015625 -7.171875 3.703125 -7.171875 C 4.585938 -7.171875 5.253906 -6.96875 5.703125 -6.5625 C 6.148438 -6.15625 6.375 -5.566406 6.375 -4.796875 L 6.375 -1.765625 C 6.375 -1.421875 6.414062 -1.160156 6.5 -0.984375 C 6.59375 -0.804688 6.769531 -0.71875 7.03125 -0.71875 C 7.144531 -0.71875 7.269531 -0.734375 7.40625 -0.765625 L 7.40625 -0.03125 C 7.113281 0.03125 6.816406 0.0625 6.515625 0.0625 C 6.078125 0.0625 5.757812 -0.0507812 5.5625 -0.28125 C 5.363281 -0.507812 5.25 -0.863281 5.21875 -1.34375 L 5.1875 -1.34375 C 4.882812 -0.8125 4.535156 -0.429688 4.140625 -0.203125 C 3.742188 0.015625 3.257812 0.125 2.6875 0.125 Z M 2.96875 -0.75 C 3.394531 -0.75 3.773438 -0.84375 4.109375 -1.03125 C 4.441406 -1.226562 4.703125 -1.5 4.890625 -1.84375 C 5.085938 -2.1875 5.1875 -2.535156 5.1875 -2.890625 L 5.1875 -3.46875 L 3.90625 -3.453125 C 3.351562 -3.441406 2.929688 -3.382812 2.640625 -3.28125 C 2.359375 -3.175781 2.140625 -3.015625 1.984375 -2.796875 C 1.835938 -2.578125 1.765625 -2.296875 1.765625 -1.953125 C 1.765625 -1.566406 1.867188 -1.269531 2.078125 -1.0625 C 2.285156 -0.851562 2.582031 -0.75 2.96875 -0.75 Z "/>
</g>
<g id="glyph-0-2">
<path d="M 5.375 0 L 5.375 -4.46875 C 5.375 -4.925781 5.328125 -5.28125 5.234375 -5.53125 C 5.140625 -5.789062 4.992188 -5.976562 4.796875 -6.09375 C 4.597656 -6.207031 4.304688 -6.265625 3.921875 -6.265625 C 3.359375 -6.265625 2.910156 -6.070312 2.578125 -5.6875 C 2.253906 -5.300781 2.09375 -4.765625 2.09375 -4.078125 L 2.09375 0 L 0.921875 0 L 0.921875 -5.53125 C 0.921875 -6.351562 0.910156 -6.859375 0.890625 -7.046875 L 1.984375 -7.046875 C 1.992188 -7.023438 2 -6.960938 2 -6.859375 C 2.007812 -6.765625 2.015625 -6.65625 2.015625 -6.53125 C 2.023438 -6.414062 2.035156 -6.1875 2.046875 -5.84375 L 2.0625 -5.84375 C 2.332031 -6.320312 2.644531 -6.660156 3 -6.859375 C 3.351562 -7.066406 3.789062 -7.171875 4.3125 -7.171875 C 5.082031 -7.171875 5.644531 -6.976562 6 -6.59375 C 6.363281 -6.207031 6.546875 -5.570312 6.546875 -4.6875 L 6.546875 0 Z "/>
</g>
<g id="glyph-0-3">
<path d="M 0.890625 -8.53125 L 0.890625 -9.65625 L 2.0625 -9.65625 L 2.0625 -8.53125 Z M 0.890625 0 L 0.890625 -7.046875 L 2.0625 -7.046875 L 2.0625 0 Z "/>
</g>
<g id="glyph-0-4">
<path d="M 5 0 L 5 -4.46875 C 5 -5.144531 4.90625 -5.613281 4.71875 -5.875 C 4.53125 -6.132812 4.191406 -6.265625 3.703125 -6.265625 C 3.210938 -6.265625 2.820312 -6.070312 2.53125 -5.6875 C 2.238281 -5.3125 2.09375 -4.773438 2.09375 -4.078125 L 2.09375 0 L 0.921875 0 L 0.921875 -5.53125 C 0.921875 -6.351562 0.910156 -6.859375 0.890625 -7.046875 L 1.984375 -7.046875 C 1.992188 -7.023438 2 -6.960938 2 -6.859375 C 2.007812 -6.765625 2.015625 -6.65625 2.015625 -6.53125 C 2.023438 -6.414062 2.035156 -6.1875 2.046875 -5.84375 L 2.0625 -5.84375 C 2.3125 -6.34375 2.597656 -6.6875 2.921875 -6.875 C 3.253906 -7.070312 3.65625 -7.171875 4.125 -7.171875 C 4.65625 -7.171875 5.070312 -7.0625 5.375 -6.84375 C 5.6875 -6.632812 5.90625 -6.300781 6.03125 -5.84375 L 6.046875 -5.84375 C 6.296875 -6.3125 6.59375 -6.648438 6.9375 -6.859375 C 7.28125 -7.066406 7.695312 -7.171875 8.1875 -7.171875 C 8.894531 -7.171875 9.410156 -6.976562 9.734375 -6.59375 C 10.054688 -6.207031 10.21875 -5.570312 10.21875 -4.6875 L 10.21875 0 L 9.0625 0 L 9.0625 -4.46875 C 9.0625 -5.144531 8.96875 -5.613281 8.78125 -5.875 C 8.59375 -6.132812 8.257812 -6.265625 7.78125 -6.265625 C 7.269531 -6.265625 6.867188 -6.070312 6.578125 -5.6875 C 6.296875 -5.3125 6.15625 -4.773438 6.15625 -4.078125 L 6.15625 0 Z "/>
</g>
<g id="glyph-0-5">
</g>
<g id="glyph-0-6">
<path d="M 6.828125 -2.53125 C 6.828125 -1.6875 6.554688 -1.03125 6.015625 -0.5625 C 5.484375 -0.101562 4.71875 0.125 3.71875 0.125 C 2.789062 0.125 2.046875 -0.0820312 1.484375 -0.5 C 0.929688 -0.914062 0.601562 -1.535156 0.5 -2.359375 L 1.71875 -2.46875 C 1.875 -1.382812 2.539062 -0.84375 3.71875 -0.84375 C 4.300781 -0.84375 4.757812 -0.988281 5.09375 -1.28125 C 5.4375 -1.570312 5.609375 -2.003906 5.609375 -2.578125 C 5.609375 -3.066406 5.414062 -3.453125 5.03125 -3.734375 C 4.644531 -4.015625 4.09375 -4.15625 3.375 -4.15625 L 2.703125 -4.15625 L 2.703125 -5.171875 L 3.34375 -5.171875 C 3.988281 -5.171875 4.488281 -5.3125 4.84375 -5.59375 C 5.195312 -5.875 5.375 -6.257812 5.375 -6.75 C 5.375 -7.238281 5.226562 -7.625 4.9375 -7.90625 C 4.644531 -8.195312 4.21875 -8.34375 3.65625 -8.34375 C 3.132812 -8.34375 2.710938 -8.207031 2.390625 -7.9375 C 2.078125 -7.675781 1.894531 -7.304688 1.84375 -6.828125 L 0.65625 -6.921875 C 0.75 -7.671875 1.0625 -8.253906 1.59375 -8.671875 C 2.132812 -9.097656 2.820312 -9.3125 3.65625 -9.3125 C 4.582031 -9.3125 5.300781 -9.097656 5.8125 -8.671875 C 6.320312 -8.242188 6.578125 -7.644531 6.578125 -6.875 C 6.578125 -6.289062 6.410156 -5.816406 6.078125 -5.453125 C 5.753906 -5.085938 5.28125 -4.835938 4.65625 -4.703125 L 4.65625 -4.671875 C 5.34375 -4.597656 5.875 -4.367188 6.25 -3.984375 C 6.632812 -3.597656 6.828125 -3.113281 6.828125 -2.53125 Z "/>
</g>
<g id="glyph-0-7">
<path d="M 8.984375 -4.671875 C 8.984375 -3.734375 8.796875 -2.90625 8.421875 -2.1875 C 8.054688 -1.476562 7.535156 -0.9375 6.859375 -0.5625 C 6.179688 -0.1875 5.398438 0 4.515625 0 L 1.09375 0 L 1.09375 -9.171875 L 4.125 -9.171875 C 5.675781 -9.171875 6.875 -8.78125 7.71875 -8 C 8.5625 -7.21875 8.984375 -6.109375 8.984375 -4.671875 Z M 7.734375 -4.671875 C 7.734375 -5.816406 7.421875 -6.6875 6.796875 -7.28125 C 6.179688 -7.875 5.28125 -8.171875 4.09375 -8.171875 L 2.34375 -8.171875 L 2.34375 -1 L 4.375 -1 C 5.050781 -1 5.644531 -1.144531 6.15625 -1.4375 C 6.664062 -1.726562 7.054688 -2.148438 7.328125 -2.703125 C 7.597656 -3.265625 7.734375 -3.921875 7.734375 -4.671875 Z "/>
</g>
<g id="glyph-0-8">
<path d="M 4.6875 -8.15625 L 4.6875 0 L 3.453125 0 L 3.453125 -8.15625 L 0.296875 -8.15625 L 0.296875 -9.171875 L 7.828125 -9.171875 L 7.828125 -8.15625 Z "/>
</g>
<g id="glyph-0-9">
<path d="M 1.796875 -3.28125 C 1.796875 -2.46875 1.960938 -1.84375 2.296875 -1.40625 C 2.628906 -0.96875 3.117188 -0.75 3.765625 -0.75 C 4.265625 -0.75 4.664062 -0.847656 4.96875 -1.046875 C 5.28125 -1.253906 5.492188 -1.515625 5.609375 -1.828125 L 6.625 -1.53125 C 6.207031 -0.425781 5.253906 0.125 3.765625 0.125 C 2.722656 0.125 1.925781 -0.179688 1.375 -0.796875 C 0.832031 -1.421875 0.5625 -2.34375 0.5625 -3.5625 C 0.5625 -4.726562 0.832031 -5.617188 1.375 -6.234375 C 1.925781 -6.859375 2.707031 -7.171875 3.71875 -7.171875 C 5.78125 -7.171875 6.8125 -5.921875 6.8125 -3.421875 L 6.8125 -3.28125 Z M 5.609375 -4.171875 C 5.546875 -4.910156 5.359375 -5.453125 5.046875 -5.796875 C 4.734375 -6.140625 4.285156 -6.3125 3.703125 -6.3125 C 3.128906 -6.3125 2.675781 -6.117188 2.34375 -5.734375 C 2.007812 -5.359375 1.832031 -4.835938 1.8125 -4.171875 Z "/>
</g>
<g id="glyph-0-10">
<path d="M 5.21875 0 L 3.3125 -2.890625 L 1.40625 0 L 0.15625 0 L 2.65625 -3.625 L 0.265625 -7.046875 L 1.5625 -7.046875 L 3.3125 -4.296875 L 5.0625 -7.046875 L 6.375 -7.046875 L 3.984375 -3.625 L 6.515625 0 Z "/>
</g>
<g id="glyph-0-11">
<path d="M 3.609375 -0.046875 C 3.222656 0.0546875 2.828125 0.109375 2.421875 0.109375 C 1.484375 0.109375 1.015625 -0.421875 1.015625 -1.484375 L 1.015625 -6.1875 L 0.203125 -6.1875 L 0.203125 -7.046875 L 1.0625 -7.046875 L 1.40625 -8.609375 L 2.1875 -8.609375 L 2.1875 -7.046875 L 3.484375 -7.046875 L 3.484375 -6.1875 L 2.1875 -6.1875 L 2.1875 -1.75 C 2.1875 -1.40625 2.238281 -1.164062 2.34375 -1.03125 C 2.457031 -0.894531 2.648438 -0.828125 2.921875 -0.828125 C 3.078125 -0.828125 3.304688 -0.859375 3.609375 -0.921875 Z "/>
</g>
</g>
</defs>
<g fill="rgb(100%, 100%, 100%)" fill-opacity="1">
<use xlink:href="#glyph-0-0" x="30" y="32.070312"/>
<use xlink:href="#glyph-0-1" x="41" y="32.070312"/>
<use xlink:href="#glyph-0-2" x="48" y="32.070312"/>
<use xlink:href="#glyph-0-3" x="55" y="32.070312"/>
<use xlink:href="#glyph-0-4" x="58" y="32.070312"/>
<use xlink:href="#glyph-0-5" x="69" y="32.070312"/>
<use xlink:href="#glyph-0-6" x="73" y="32.070312"/>
<use xlink:href="#glyph-0-7" x="80" y="32.070312"/>
<use xlink:href="#glyph-0-5" x="90" y="32.070312"/>
<use xlink:href="#glyph-0-8" x="93" y="32.070312"/>
<use xlink:href="#glyph-0-9" x="100" y="32.070312"/>
<use xlink:href="#glyph-0-10" x="107" y="32.070312"/>
<use xlink:href="#glyph-0-11" x="114" y="32.070312"/>
</g>
</svg>
