<?xml version="1.0" encoding="UTF-8"?>
<svg xmlns="http://www.w3.org/2000/svg" xmlns:xlink="http://www.w3.org/1999/xlink" width="854" height="480" viewBox="0 0 854 480">
<defs>
<g>
<g id="glyph-0-0">
<path d="M 0.5 0 L 0.5 -0.5625 L 0.6875 -0.5625 C 0.882812 -0.5625 1.066406 -0.582031 1.234375 -0.625 C 1.398438 -0.664062 1.53125 -0.753906 1.625 -0.890625 C 1.71875 -1.035156 1.765625 -1.242188 1.765625 -1.515625 L 1.765625 -8.046875 C 1.765625 -8.316406 1.710938 -8.515625 1.609375 -8.640625 C 1.515625 -8.773438 1.382812 -8.859375 1.21875 -8.890625 C 1.050781 -8.929688 0.875 -8.953125 0.6875 -8.953125 L 0.5 -8.953125 L 0.5 -9.515625 L 4.078125 -9.515625 C 5.234375 -9.515625 6.09375 -9.320312 6.65625 -8.9375 C 7.21875 -8.550781 7.5 -7.945312 7.5 -7.125 C 7.5 -6.738281 7.425781 -6.40625 7.28125 -6.125 C 7.144531 -5.851562 6.953125 -5.628906 6.703125 -5.453125 C 6.453125 -5.285156 6.164062 -5.144531 5.84375 -5.03125 L 5.84375 -4.984375 C 6.257812 -4.910156 6.617188 -4.773438 6.921875 -4.578125 C 7.234375 -4.378906 7.472656 -4.113281 7.640625 -3.78125 C 7.816406 -3.445312 7.90625 -3.046875 7.90625 -2.578125 C 7.90625 -1.710938 7.617188 -1.066406 7.046875 -0.640625 C 6.484375 -0.210938 5.628906 0 4.484375 0 Z M 4.40625 -0.671875 C 5.164062 -0.671875 5.703125 -0.816406 6.015625 -1.109375 C 6.328125 -1.398438 6.484375 -1.898438 6.484375 -2.609375 C 6.484375 -3.078125 6.421875 -3.460938 6.296875 -3.765625 C 6.171875 -4.066406 5.957031 -4.289062 5.65625 -4.4375 C 5.363281 -4.582031 4.957031 -4.65625 4.4375 -4.65625 L 3.125 -4.65625 L 3.125 -0.671875 Z M 4.03125 -5.3125 C 4.5625 -5.3125 4.972656 -5.375 5.265625 -5.5 C 5.554688 -5.625 5.765625 -5.816406 5.890625 -6.078125 C 6.015625 -6.347656 6.078125 -6.695312 6.078125 -7.125 C 6.078125 -7.78125 5.921875 -8.226562 5.609375 -8.46875 C 5.296875 -8.71875 4.765625 -8.84375 4.015625 -8.84375 L 3.125 -8.84375 L 3.125 -5.3125 Z "/>
</g>
<g id="glyph-0-1">
</g>
<g id="glyph-0-2">
<path d="M 0.859375 -5.671875 L 0.859375 -6.46875 L 6.578125 -6.46875 L 6.578125 -5.671875 Z M 0.859375 -3.046875 L 0.859375 -3.84375 L 6.578125 -3.84375 L 6.578125 -3.046875 Z "/>
</g>
<g id="glyph-0-3">
<path d="M 4.15625 1.703125 C 3.53125 1.703125 3.050781 1.53125 2.71875 1.1875 C 2.394531 0.84375 2.234375 0.375 2.234375 -0.21875 L 2.234375 -2.53125 C 2.234375 -2.894531 2.164062 -3.175781 2.03125 -3.375 C 1.894531 -3.570312 1.707031 -3.710938 1.46875 -3.796875 C 1.226562 -3.890625 0.960938 -3.9375 0.671875 -3.9375 L 0.671875 -4.5 C 0.960938 -4.507812 1.226562 -4.554688 1.46875 -4.640625 C 1.707031 -4.722656 1.894531 -4.863281 2.03125 -5.0625 C 2.164062 -5.269531 2.234375 -5.550781 2.234375 -5.90625 L 2.234375 -8.21875 C 2.234375 -8.820312 2.394531 -9.289062 2.71875 -9.625 C 3.050781 -9.957031 3.53125 -10.125 4.15625 -10.125 L 5.03125 -10.125 L 5.03125 -9.5625 L 4.640625 -9.5625 C 4.242188 -9.5625 3.960938 -9.441406 3.796875 -9.203125 C 3.628906 -8.960938 3.546875 -8.613281 3.546875 -8.15625 L 3.546875 -5.875 C 3.546875 -5.4375 3.421875 -5.070312 3.171875 -4.78125 C 2.929688 -4.5 2.5625 -4.316406 2.0625 -4.234375 L 2.0625 -4.21875 C 2.570312 -4.132812 2.945312 -3.945312 3.1875 -3.65625 C 3.425781 -3.375 3.546875 -3.015625 3.546875 -2.578125 L 3.546875 -0.265625 C 3.546875 0.179688 3.628906 0.523438 3.796875 0.765625 C 3.960938 1.015625 4.242188 1.140625 4.640625 1.140625 L 5.03125 1.140625 L 5.03125 1.703125 Z "/>
</g>
<g id="glyph-0-4">
<path d="M 3.734375 0.140625 C 3.003906 0.140625 2.40625 -0.0625 1.9375 -0.46875 C 1.476562 -0.882812 1.140625 -1.460938 0.921875 -2.203125 C 0.703125 -2.941406 0.59375 -3.800781 0.59375 -4.78125 C 0.59375 -5.769531 0.703125 -6.628906 0.921875 -7.359375 C 1.140625 -8.085938 1.476562 -8.648438 1.9375 -9.046875 C 2.40625 -9.453125 3.007812 -9.65625 3.75 -9.65625 C 4.4375 -9.65625 5.007812 -9.453125 5.46875 -9.046875 C 5.9375 -8.648438 6.28125 -8.082031 6.5 -7.34375 C 6.726562 -6.613281 6.84375 -5.753906 6.84375 -4.765625 C 6.84375 -3.785156 6.726562 -2.925781 6.5 -2.1875 C 6.269531 -1.457031 5.925781 -0.882812 5.46875 -0.46875 C 5.007812 -0.0625 4.429688 0.140625 3.734375 0.140625 Z M 3.734375 -0.59375 C 4.171875 -0.59375 4.507812 -0.757812 4.75 -1.09375 C 5 -1.425781 5.179688 -1.898438 5.296875 -2.515625 C 5.410156 -3.140625 5.46875 -3.890625 5.46875 -4.765625 C 5.46875 -5.648438 5.410156 -6.398438 5.296875 -7.015625 C 5.179688 -7.640625 5 -8.113281 4.75 -8.4375 C 4.507812 -8.769531 4.175781 -8.9375 3.75 -8.9375 C 3.3125 -8.9375 2.960938 -8.769531 2.703125 -8.4375 C 2.441406 -8.113281 2.253906 -7.640625 2.140625 -7.015625 C 2.035156 -6.398438 1.984375 -5.648438 1.984375 -4.765625 C 1.984375 -3.890625 2.035156 -3.140625 2.140625 -2.515625 C 2.253906 -1.898438 2.441406 -1.425781 2.703125 -1.09375 C 2.960938 -0.757812 3.304688 -0.59375 3.734375 -0.59375 Z "/>
</g>
<g id="glyph-0-5">
<path d="M 0.40625 1.5 C 0.695312 1.394531 0.9375 1.28125 1.125 1.15625 C 1.3125 1.039062 1.445312 0.910156 1.53125 0.765625 C 1.625 0.617188 1.671875 0.460938 1.671875 0.296875 C 1.671875 0.160156 1.617188 0.0546875 1.515625 -0.015625 C 1.421875 -0.0859375 1.304688 -0.15625 1.171875 -0.21875 C 1.046875 -0.28125 0.929688 -0.363281 0.828125 -0.46875 C 0.734375 -0.570312 0.6875 -0.726562 0.6875 -0.9375 C 0.6875 -1.1875 0.769531 -1.378906 0.9375 -1.515625 C 1.101562 -1.648438 1.3125 -1.71875 1.5625 -1.71875 C 1.832031 -1.71875 2.066406 -1.617188 2.265625 -1.421875 C 2.472656 -1.222656 2.578125 -0.9375 2.578125 -0.5625 C 2.578125 0.0078125 2.410156 0.53125 2.078125 1 C 1.753906 1.46875 1.195312 1.816406 0.40625 2.046875 Z "/>
</g>
<g id="glyph-0-6">
<path d="M 0.8125 0 L 0.8125 -0.96875 L 3.03125 -3.546875 C 3.507812 -4.097656 3.882812 -4.570312 4.15625 -4.96875 C 4.4375 -5.375 4.632812 -5.757812 4.75 -6.125 C 4.875 -6.488281 4.9375 -6.878906 4.9375 -7.296875 C 4.9375 -7.628906 4.882812 -7.921875 4.78125 -8.171875 C 4.6875 -8.429688 4.535156 -8.628906 4.328125 -8.765625 C 4.128906 -8.910156 3.878906 -8.984375 3.578125 -8.984375 C 3.171875 -8.984375 2.859375 -8.890625 2.640625 -8.703125 C 2.429688 -8.515625 2.289062 -8.269531 2.21875 -7.96875 C 2.144531 -7.675781 2.109375 -7.351562 2.109375 -7 C 1.890625 -7 1.691406 -7.019531 1.515625 -7.0625 C 1.347656 -7.113281 1.210938 -7.203125 1.109375 -7.328125 C 1.003906 -7.460938 0.953125 -7.640625 0.953125 -7.859375 C 0.953125 -8.210938 1.050781 -8.519531 1.25 -8.78125 C 1.445312 -9.050781 1.738281 -9.265625 2.125 -9.421875 C 2.519531 -9.578125 3.003906 -9.65625 3.578125 -9.65625 C 4.128906 -9.65625 4.609375 -9.5625 5.015625 -9.375 C 5.421875 -9.195312 5.734375 -8.941406 5.953125 -8.609375 C 6.171875 -8.273438 6.28125 -7.878906 6.28125 -7.421875 C 6.28125 -7.171875 6.242188 -6.925781 6.171875 -6.6875 C 6.109375 -6.445312 6.015625 -6.207031 5.890625 -5.96875 C 5.765625 -5.726562 5.613281 -5.476562 5.4375 -5.21875 C 5.257812 -4.96875 5.054688 -4.707031 4.828125 -4.4375 C 4.597656 -4.164062 4.335938 -3.875 4.046875 -3.5625 L 1.796875 -1.0625 L 4.875 -1.0625 C 5.28125 -1.0625 5.550781 -1.160156 5.6875 -1.359375 C 5.832031 -1.566406 5.9375 -1.800781 6 -2.0625 L 6.046875 -2.3125 L 6.609375 -2.3125 L 6.546875 0 Z "/>
</g>
<g id="glyph-0-7">
<path d="M 2.859375 0 L 2.859375 -0.5625 L 3.234375 -0.5625 C 3.441406 -0.5625 3.625 -0.582031 3.78125 -0.625 C 3.945312 -0.664062 4.078125 -0.753906 4.171875 -0.890625 C 4.273438 -1.035156 4.328125 -1.242188 4.328125 -1.515625 L 4.328125 -2.609375 L 0.234375 -2.609375 L 0.234375 -3.15625 L 4.34375 -9.515625 L 5.609375 -9.515625 L 5.609375 -3.359375 L 7.265625 -3.359375 L 7.265625 -2.609375 L 5.609375 -2.609375 L 5.609375 -1.515625 C 5.609375 -1.242188 5.65625 -1.035156 5.75 -0.890625 C 5.851562 -0.753906 5.988281 -0.664062 6.15625 -0.625 C 6.320312 -0.582031 6.503906 -0.5625 6.703125 -0.5625 L 6.875 -0.5625 L 6.875 0 Z M 1.1875 -3.359375 L 4.328125 -3.359375 L 4.328125 -5.828125 C 4.328125 -6.078125 4.328125 -6.363281 4.328125 -6.6875 C 4.335938 -7.019531 4.347656 -7.347656 4.359375 -7.671875 C 4.378906 -8.003906 4.398438 -8.304688 4.421875 -8.578125 C 4.378906 -8.492188 4.304688 -8.363281 4.203125 -8.1875 C 4.109375 -8.007812 4 -7.816406 3.875 -7.609375 C 3.75 -7.398438 3.628906 -7.195312 3.515625 -7 C 3.398438 -6.8125 3.300781 -6.65625 3.21875 -6.53125 Z "/>
</g>
<g id="glyph-0-8">
<path d="M 0.671875 1.703125 L 0.671875 1.140625 L 1.0625 1.140625 C 1.457031 1.140625 1.738281 1.015625 1.90625 0.765625 C 2.070312 0.523438 2.15625 0.179688 2.15625 -0.265625 L 2.15625 -2.578125 C 2.15625 -3.015625 2.273438 -3.375 2.515625 -3.65625 C 2.753906 -3.945312 3.128906 -4.132812 3.640625 -4.21875 L 3.640625 -4.234375 C 3.148438 -4.316406 2.78125 -4.5 2.53125 -4.78125 C 2.28125 -5.070312 2.15625 -5.4375 2.15625 -5.875 L 2.15625 -8.15625 C 2.15625 -8.613281 2.070312 -8.960938 1.90625 -9.203125 C 1.738281 -9.441406 1.457031 -9.5625 1.0625 -9.5625 L 0.671875 -9.5625 L 0.671875 -10.125 L 1.546875 -10.125 C 2.179688 -10.125 2.660156 -9.957031 2.984375 -9.625 C 3.304688 -9.289062 3.46875 -8.820312 3.46875 -8.21875 L 3.46875 -5.90625 C 3.46875 -5.550781 3.535156 -5.269531 3.671875 -5.0625 C 3.816406 -4.863281 4.003906 -4.722656 4.234375 -4.640625 C 4.472656 -4.554688 4.738281 -4.507812 5.03125 -4.5 L 5.03125 -3.9375 C 4.738281 -3.9375 4.472656 -3.890625 4.234375 -3.796875 C 4.003906 -3.710938 3.816406 -3.570312 3.671875 -3.375 C 3.535156 -3.175781 3.46875 -2.894531 3.46875 -2.53125 L 3.46875 -0.21875 C 3.46875 0.375 3.304688 0.84375 2.984375 1.1875 C 2.660156 1.53125 2.179688 1.703125 1.546875 1.703125 Z "/>
</g>
</g>
</defs>
<g fill="rgb(100%, 100%, 100%)" fill-opacity="1">
<use xlink:href="#glyph-0-0" x="30" y="34.25293"/>
<use xlink:href="#glyph-0-1" x="39" y="34.25293"/>
<use xlink:href="#glyph-0-2" x="42" y="34.25293"/>
<use xlink:href="#glyph-0-1" x="49" y="34.25293"/>
<use xlink:href="#glyph-0-3" x="52" y="34.25293"/>
<use xlink:href="#glyph-0-4" x="58" y="34.25293"/>
<use xlink:href="#glyph-0-5" x="65" y="34.25293"/>
<use xlink:href="#glyph-0-1" x="68" y="34.25293"/>
<use xlink:href="#glyph-0-6" x="71" y="34.25293"/>
<use xlink:href="#glyph-0-5" x="78" y="34.25293"/>
<use xlink:href="#glyph-0-1" x="81" y="34.25293"/>
<use xlink:href="#glyph-0-7" x="84" y="34.25293"/>
<use xlink:href="#glyph-0-8" x="91" y="34.25293"/>
</g>
</svg>
